<?xml version="1.0" encoding="UTF-8"?>
<svg version="1.1" xmlns="http://www.w3.org/2000/svg" width="32" height="32">
<path d="M0 0 C3.27593689 2.5452745 5.32676302 4.93301158 6.15625 8.98828125 C6.29617873 13.70213031 5.8558839 17.62940702 2.90625 21.42578125 C-0.4146601 24.52026566 -2.37273805 25.91493025 -6.94921875 26.05078125 C-12.83256183 25.73542618 -15.83183236 24.29375384 -19.84375 19.98828125 C-22.28732377 16.16355708 -22.0671983 12.56923986 -21.44921875 8.20703125 C-20.21983073 3.70191903 -17.51674716 1.05714055 -13.59375 -1.44921875 C-8.91871806 -2.40547528 -4.26301752 -2.33924055 0 0 Z " fill="#BF955A" transform="translate(23.84375,4.01171875)"/>
<path d="M0 0 C3.27593689 2.5452745 5.32676302 4.93301158 6.15625 8.98828125 C6.29617873 13.70213031 5.8558839 17.62940702 2.90625 21.42578125 C-0.4146601 24.52026566 -2.37273805 25.91493025 -6.94921875 26.05078125 C-12.83256183 25.73542618 -15.83183236 24.29375384 -19.84375 19.98828125 C-22.28732377 16.16355708 -22.0671983 12.56923986 -21.44921875 8.20703125 C-20.21983073 3.70191903 -17.51674716 1.05714055 -13.59375 -1.44921875 C-8.91871806 -2.40547528 -4.26301752 -2.33924055 0 0 Z M-18.84375 4.98828125 C-19.80673724 8.16390927 -19.80673724 8.16390927 -19.84375 10.98828125 C-18.52375 10.98828125 -17.20375 10.98828125 -15.84375 10.98828125 C-13.27603397 7.68693207 -12.84375 6.25953633 -12.84375 1.98828125 C-10.86375 1.98828125 -8.88375 1.98828125 -6.84375 1.98828125 C-6.84375 4.98828125 -6.84375 4.98828125 -7.84375 7.98828125 C-8.83375 7.98828125 -9.82375 7.98828125 -10.84375 7.98828125 C-10.84375 8.64828125 -10.84375 9.30828125 -10.84375 9.98828125 C-9.709375 10.11203125 -8.575 10.23578125 -7.40625 10.36328125 C-6.230625 10.56953125 -5.055 10.77578125 -3.84375 10.98828125 C-3.51375 11.64828125 -3.18375 12.30828125 -2.84375 12.98828125 C-5.60651177 12.46559659 -8.1698376 11.87958538 -10.84375 10.98828125 C-10.51375 11.97828125 -10.18375 12.96828125 -9.84375 13.98828125 C-11.49375 13.98828125 -13.14375 13.98828125 -14.84375 13.98828125 C-15.17375 13.32828125 -15.50375 12.66828125 -15.84375 11.98828125 C-17.16375 11.98828125 -18.48375 11.98828125 -19.84375 11.98828125 C-19.6718543 16.37162167 -19.24225089 18.50803659 -16.40625 21.92578125 C-12.88660467 24.47858425 -9.5151791 24.70655859 -5.25390625 24.46875 C-1.10898905 23.6424537 0.44285074 22.25827523 3.15625 18.98828125 C4.12463142 15.30903141 4.12463142 15.30903141 4.15625 11.98828125 C2.83625 11.65828125 1.51625 11.32828125 0.15625 10.98828125 C1.47625 10.98828125 2.79625 10.98828125 4.15625 10.98828125 C3.9685905 6.95360209 3.36415966 5.23350802 0.71875 2.11328125 C-2.80426799 -0.50139234 -6.13460964 -0.72952275 -10.43359375 -0.49609375 C-14.53385917 0.32794663 -16.13335183 1.79140136 -18.84375 4.98828125 Z " fill="#5A5F56" transform="translate(23.84375,4.01171875)"/>
<path d="M0 0 C2.85408007 1.35525734 3.8705564 2.48834857 6 5 C6.875 8.3125 6.875 8.3125 7 11 C5.68 11 4.36 11 3 11 C2.67 12.32 2.34 13.64 2 15 C-1.38391693 16.06351675 -2.5804634 16.21442982 -5.8125 14.5625 C-6.534375 14.046875 -7.25625 13.53125 -8 13 C-7.67 12.34 -7.34 11.68 -7 11 C-6.21625 11.33 -5.4325 11.66 -4.625 12 C-2.15667503 13.11866511 -2.15667503 13.11866511 0 13 C-0.33 12.34 -0.66 11.68 -1 11 C-3.32156597 10.59270772 -5.6568787 10.25561323 -8 10 C-8 9.34 -8 8.68 -8 8 C-7.01 8 -6.02 8 -5 8 C-3.84188612 5.05270463 -3.84188612 5.05270463 -4 2 C-5.98 2 -7.96 2 -10 2 C-10.12375 2.7425 -10.2475 3.485 -10.375 4.25 C-10.95486701 6.80141485 -11.73708739 8.7267573 -13 11 C-14.32 11 -15.64 11 -17 11 C-16.8123405 6.96532084 -16.20790966 5.24522677 -13.5625 2.125 C-9.41445261 -0.95355083 -4.93787255 -0.99237633 0 0 Z " fill="#F7B454" transform="translate(21,4)"/>
<path d="M0 0 C0 0.66 0 1.32 0 2 C0.66 2.33 1.32 2.66 2 3 C0.6875 4.5 0.6875 4.5 -1 6 C-1.99 6 -2.98 6 -4 6 C-4 6.66 -4 7.32 -4 8 C-1.69 8 0.62 8 3 8 C3.33 8.99 3.66 9.98 4 11 C3.01 11.33 2.02 11.66 1 12 C0.38125 11.67 -0.2375 11.34 -0.875 11 C-3.61867229 9.7088601 -5.13937931 10.20538314 -8 11 C-8.19491883 6.80924525 -7.93330576 3.75920564 -6 0 C-3.50907189 -1.24546405 -2.58919267 -0.7767578 0 0 Z " fill="#95987B" transform="translate(17,6)"/>
<path d="M0 0 C1.32 0 2.64 0 4 0 C4.33 0.66 4.66 1.32 5 2 C6.99488234 2.36270588 8.99598989 2.69169075 11 3 C12.68375165 3.62225605 14.35767228 4.27544365 16 5 C15.67 5.66 15.34 6.32 15 7 C11.65747276 7.07427838 9.1964086 7.06546953 6 6 C5.01 6.99 4.02 7.98 3 9 C0.90250005 6.64031256 0.03094296 5.45383006 -0.1875 2.25 C-0.125625 1.5075 -0.06375 0.765 0 0 Z " fill="#E5C057" transform="translate(4,16)"/>
<path d="M0 0 C2.27029534 0.39143023 3.83408198 0.88741278 5.75 2.1875 C7.54267046 4.78687216 7.20510719 6.92339216 7 10 C3.61608307 11.06351675 2.4195366 11.21442982 -0.8125 9.5625 C-1.534375 9.046875 -2.25625 8.53125 -3 8 C-2.67 7.34 -2.34 6.68 -2 6 C-0.824375 6.495 -0.824375 6.495 0.375 7 C2.84332497 8.11866511 2.84332497 8.11866511 5 8 C4.67 7.34 4.34 6.68 4 6 C1.67843403 5.59270772 -0.6568787 5.25561323 -3 5 C-3 4.34 -3 3.68 -3 3 C-2.01 3 -1.02 3 0 3 C0 2.01 0 1.02 0 0 Z " fill="#E7DA9D" transform="translate(16,9)"/>
<path d="M0 0 C3.375 -0.1875 3.375 -0.1875 7 0 C9 3 9 3 9 7 C7.68 7 6.36 7 5 7 C5 6.34 5 5.68 5 5 C4.360625 4.731875 3.72125 4.46375 3.0625 4.1875 C1 3 1 3 0 0 Z " fill="#EAA853" transform="translate(19,8)"/>
<path d="M0 0 C1 2 1 2 0.0625 5.125 C-0.288125 6.07375 -0.63875 7.0225 -1 8 C0.32 8 1.64 8 3 8 C3.33 7.34 3.66 6.68 4 6 C4.33 6.66 4.66 7.32 5 8 C4.67 8.66 4.34 9.32 4 10 C5.65 10 7.3 10 9 10 C9.33 10.66 9.66 11.32 10 12 C7.69 12 5.38 12 3 12 C3 11.01 3 10.02 3 9 C1.68 9 0.36 9 -1 9 C-1 9.99 -1 10.98 -1 12 C-1.66 12 -2.32 12 -3 12 C-2.88541307 10.56163249 -2.75790884 9.12429034 -2.625 7.6875 C-2.55539063 6.88699219 -2.48578125 6.08648437 -2.4140625 5.26171875 C-2 3 -2 3 0 0 Z " fill="#686E5C" transform="translate(5,7)"/>
<path d="M0 0 C3.66679392 0.05298835 4.75610884 0.09394007 7.75 2.375 C8.20375 3.035 8.6575 3.695 9.125 4.375 C6.485 4.375 3.845 4.375 1.125 4.375 C1.125 3.715 1.125 3.055 1.125 2.375 C-1.515 2.375 -4.155 2.375 -6.875 2.375 C-4.38459058 -0.11540942 -3.44345643 0.05108986 0 0 Z " fill="#F3BB65" transform="translate(15.875,3.625)"/>
<path d="M0 0 C0 0.66 0 1.32 0 2 C0.66 2.33 1.32 2.66 2 3 C-1.33333333 4.33333333 -4.66666667 5.66666667 -8 7 C-7.40138258 4.64828869 -6.73075648 2.3140622 -6 0 C-3.50907189 -1.24546405 -2.58919267 -0.7767578 0 0 Z " fill="#918967" transform="translate(17,6)"/>
<path d="M0 0 C4.455 0.99 4.455 0.99 9 2 C8.34 3.32 7.68 4.64 7 6 C3.26512223 5.5020163 1.18762365 5.12508244 -2 3 C-1.34 2.01 -0.68 1.02 0 0 Z " fill="#93855A" transform="translate(10,21)"/>
<path d="M0 0 C3.9492568 0.55105909 7.34920174 1.38935371 11 3 C10.67 3.66 10.34 4.32 10 5 C4.60158311 5.49076517 4.60158311 5.49076517 1.625 3.0625 C0 1 0 1 0 0 Z " fill="#E9DB9D" transform="translate(9,18)"/>
<path d="M0 0 C1.32 0 2.64 0 4 0 C3.67 1.98 3.34 3.96 3 6 C1.68 5.34 0.36 4.68 -1 4 C-0.67 2.68 -0.34 1.36 0 0 Z " fill="#FA984E" transform="translate(24,16)"/>
<path d="M0 0 C0.99 0 1.98 0 3 0 C3 0.66 3 1.32 3 2 C3.66 2.33 4.32 2.66 5 3 C3.02 3.99 3.02 3.99 1 5 C1 4.34 1 3.68 1 3 C0.01 2.67 -0.98 2.34 -2 2 C-1.34 1.34 -0.68 0.68 0 0 Z " fill="#5E665B" transform="translate(14,6)"/>
</svg>
